<svg id="Camada_1" data-name="Camada 1" xmlns="http://www.w3.org/2000/svg" viewBox="0 0 740.47 775.81"><defs><style>.cls-1{fill:#ebeee3;}.cls-2,.cls-3,.cls-4{fill:#303b1d;}.cls-3{font-size:35px;font-family:Rochaline-Regular, Rochaline;letter-spacing:0.1em;}.cls-4{font-size:90px;font-family:Saturday-August, Saturday August;letter-spacing:0.1em;}</style></defs><title>FundoClaro_01</title><path class="cls-1" d="M806.3,193v19.52H778.1c-10.48,0-24.94,13-24.94,33.63V363c0,36.88-16.28,106.65-57.86,139.19s-151.84,44-151.84,44v83.06c0,45.56,19.07,63.73,60,63.73h19.44v14.27H383.73V693h19.44c40.94,0,60-18.17,60-63.73V546.17s-110.27-11.48-151.85-44S253.48,399.83,253.48,363V246.17c0-20.62-14.45-33.63-24.94-33.63h-28.2V193h37.6s49,.9,65.08,17,31.46,56,31.46,121.85-.35,128.71,23.13,153.29C385,513.76,422.69,526,463.91,526V256.74c0-23.81-24-43.12-47.81-43.12H390.88V193H615.76v20.6H590.55c-23.81,0-47.82,19.31-47.82,43.12V526c41.22,0,78.95-12.25,106.3-40.86,23.49-24.58,23.14-87.5,23.14-153.29S687.54,226.1,703.62,210s65.08-17,65.08-17Z" transform="translate(-135.71 -170.52)"/><path class="cls-2" d="M290.17,210.19l-.11-.1a.32.32,0,0,0,.12.11Z" transform="translate(-135.71 -170.52)"/><path class="cls-2" d="M415,510.79c4.33-6.21,7.66-13,11.13-19.73,2.2-5.34,3.22-11.06,4-16.74a72.27,72.27,0,0,0,1-13c-.24-2.52-1.5-4.76-2.69-6.94a11,11,0,0,0-3.11-4,6.34,6.34,0,0,0-7,.6c-3.39,2.63-5,6.93-6.11,10.94-2.41,9.47-2.94,19.31-2.92,29,.05,7,.1,13.94.3,20.91q-3.72-6.69-7.55-13.29c-4.4-7.59-9.29-14.94-15.52-21.16-2.64-2.81-5.43-5.78-8.31-8.8a25.87,25.87,0,0,0-.37-3.84c-.64-3.1-.85-6.38-1.38-9.65-1.16-6.48-.71-13.08-1-19.63-.21-7.15-1.44-14.2-1.85-21.33-.58-5.41-.24-10.89-1.27-16.24-.62-4-1.82-9.73-6.63-10.33-7.86.87-9.22,14.72-10,21-.29,4.3-.71,8.58-1.14,12.87-.06,4.41,2.12,8.42,3.77,12.39a140.45,140.45,0,0,0,11.93,22.51c2,2.71,4.26,5.2,6.49,7.72.17.55.35,1.09.54,1.64a19.62,19.62,0,0,1,.59,2.52c-3.89-4.07-7.94-8.22-12-12.16-7.45-7.54-15-15-23.1-21.83-1.07-.95-2.12-1.91-3.16-2.86v-.09l.49.37-.51-.56c-.08-.61-.18-1.43-.17-1.65-.2-2.41-.16-4.82-.19-7.24-.19-3.79-.6-7.57-.81-11.36-.51-6.06-.61-12.29-2.75-18.06-1.23-3.28-2.78-7-6.65-7.64-.65-.18-1.31-.35-1.94-.59a3.7,3.7,0,0,0-2.74,1,12.43,12.43,0,0,0-2.62,5.15c-.48,3.52.42,7.05,1,10.51a51.08,51.08,0,0,0,5.48,15.48,55.89,55.89,0,0,0,7.62,11.12c-9.92-9.36-18.85-18.82-27.64-28.31a58.27,58.27,0,0,1,2-6.66c.47-1.77.67-3.61,1-5.41a88,88,0,0,1,5.89-23,118.86,118.86,0,0,0,7.15-25.63c.78-4.56,1.59-9.18,1.15-13.82-.25-2.24-.12-6.51-2.76-7.21-3.45-.49-6.13,2.21-8,4.76-1,1.1-2.06,2.16-3,3.28C300.77,338,301,355.1,300.08,370.43a39.77,39.77,0,0,0,0,4.76c-.9-3.85-1.74-7.72-2.56-11.59-1.72-8.48-3.46-17.45-3.48-26.73.05-5-.37-10-.17-15,.29-3.45,1.18-6.83,1.79-10.23,1.34-6.33,2.37-12.72,3.46-19.09l.38-1.11a130.91,130.91,0,0,1,7.26-13.83c1.9-3,4.62-5.35,7.09-7.87a49.18,49.18,0,0,0,7.29-9.41c1.76-3.3,4.46-7.17,2.61-11-.34-.58-.82-1.05-1.21-1.59a.69.69,0,0,0-.53-.34,3,3,0,0,0-1.48.19c-8.54,4.46-17.48,20.9-21.86,29.57-2.13,4.62-2.34,9.84-3.35,14.77q-1.23,7.25-2.5,14.48c-1,5.5-2.33,10.95-3,16.5a1.21,1.21,0,0,1,0,.19,130.66,130.66,0,0,0-9.74-26.33,56.08,56.08,0,0,0-7.84-10.61c-1.84-2-3.48-4.47-6.17-5.3-3.58-.82-7.95,1.05-8.53,5-1.82,6.62,6.35,18.2,10.2,23.52a167.5,167.5,0,0,0,12,14.58c1.46,1.65,3,3.22,4.47,4.85a40.45,40.45,0,0,1,4,6.17,14.86,14.86,0,0,1,1.8,4.85l0,.07c.16,8,1.9,15.92,4,23.64,1.7,6,3.58,11.93,5.8,17.74.66,1.53,1.34,3.06,2,4.59.65,2.58,1.43,5.14,2.25,7.66A9.78,9.78,0,0,0,305,396l-.1-.11a220.44,220.44,0,0,1-32.11-46.48c-3.45-6.49-7-13-9.32-20A172,172,0,0,1,255,292a39.3,39.3,0,0,1,2.25-9.28c1.7-3.34,3.26-6.75,5-10.08,2.05-3.95,5.76-10.18,7.23-12.82a289.3,289.3,0,0,0,17.94-29.66c2.12-4.18,4.65-8.48,5.79-12.95.68-2.85,2.49-6.94.11-9.37-2.3-2.12-5.79-1.66-8.25-.06a35.39,35.39,0,0,0-4.43,3.87,69.68,69.68,0,0,0-11.55,13.8,218.63,218.63,0,0,0-10.74,20.09c-2.72,8.12-3.9,16.74-4.61,25.26,0,.29,0,.58,0,.88a1.63,1.63,0,0,0-.35-.17c-.12,0-.24,0-.36,0-.55-5.9-1.34-11.8-1.36-17.73.37-10.63,2.25-21.12,3.67-31.65.39-1.74.77-3.48,1.17-5.22,2.74-3.89,5.47-7.79,8.31-11.62a79.7,79.7,0,0,0,9.92-16.1c1.94-4.42,4.85-12.4,2.62-17-4.64-5.23-10,2.7-12.78,6.14a32.57,32.57,0,0,0-5,9.86,111.49,111.49,0,0,0-2.32,13.12c-.7,5-1.38,10-2,15-.53,1-1.05,2-1.54,3-1.36,3-.94,6.3-1.24,9.48.52-2.15.75-4.36,1.28-6.51a16.85,16.85,0,0,1,1.14-2.79l-.36,3.51c0,.14-.07.27-.1.41-1.52,5.65-3,11.31-4.28,17-.35,1.6-.7,3.21-1,4.82-.81-9.1-2.31-18.14-5.47-26.72a59,59,0,0,0-9.74-16.81c-1.65-1.64-3.54-3.6-6-3.75a8.25,8.25,0,0,0-5.72,2.52,4,4,0,0,0-.71,3.5c.29,1.52.66,3,1.08,4.52,3.15,9.67,9.48,17.79,14.59,26.46,2.41,3.79,4.75,7.62,7.39,11.25,1.59,2.38,1.94,5.3,2.44,8.05.15.81.33,1.62.51,2.43a101.49,101.49,0,0,0,.29,10.46c.43,5,.82,10,1.26,15.07-.23-.65-.48-1.3-.74-1.94a103.22,103.22,0,0,0-8.63-17.08c-1.83-3-4-6.09-7.43-7.19-1.24-.81-2.95,0-3.74,1.08a15.4,15.4,0,0,0-.74,3.44c.53,5.9,4.71,10.68,8.52,14.9a93.51,93.51,0,0,0,6.74,7.05c1.68,1.26,3.6,2.18,5.14,3.62.33.28,1.17,1.1,1.05.91a26.91,26.91,0,0,0-4.64-5,22.53,22.53,0,0,1-2.66-3.4c-3.25-4.9-7.41-9.36-9.45-15a10.79,10.79,0,0,1-1-4.34c3.21,2,4.88,5.45,7.44,8.71,3.09,4.32,5.94,8.82,8.62,13.4.65,1.08,1.25,2.2,1.79,3.34.55,6.08,1.2,12.14,2.12,18.18a183.6,183.6,0,0,0,4,18.53c-2.39-3.65-4.92-7.21-7.49-10.74-6.89-9-14.43-18-24.41-23.77-4.69-2.51-11.47-5.66-16.75-3.68-2.44,1.05-4.83,2.91-5.7,5.49-1.15,3.5,1.72,6.72,3.87,9.19,4.91,5.34,11.78,8,18.15,11.13,5.19,2.57,10.08,5.7,15.29,8.24,4.8,2.66,10.3,4.2,14.52,7.81a38.35,38.35,0,0,1,5.19,5.08c.51,1.49,1,3,1.58,4.44,3,8,7.36,15.35,11.35,22.86l.76,1.37a103.75,103.75,0,0,0-12.41-9.17c-3.48-2-7-4.3-11-5-2.35,0-5.4-.75-7.12,1.26-.39.41-.28,1-.37,1.51a9,9,0,0,0-.15,3c.48,2.33,2.47,3.9,4,5.58a13,13,0,0,0,5.37,3.8c5.16,1.91,12.86,4.28,19.22,6.07,1.89.55,3.84.89,5.71,1.5.84.33,1.67.7,2.49,1.09,9.79,15.36,21.76,29.27,34.47,42.28.88.92,1.77,1.83,2.66,2.75q-6.91-6.33-13.87-12.6c-10.47-9.27-20.7-18.88-32.14-27-8.76-6.11-18.46-11.95-29.25-13.17-6.94-.37-12.24,1.34-12.43,9.25,0,3.6,2.88,6.23,5.25,8.58,5.07,4.82,11.44,8,17.76,10.84,2.29,1.06,4.44,2.38,6.68,3.52,5.06,2.36,10.33,4.27,15.51,6.34,6.17,2.56,12,5.82,18.15,8.42,3.77,1.57,7.61,3,11.4,4.5,3,1.54,5.88,3.25,8.88,4.76,2.31,1.14,4.64,2.22,7,3.27,6.9,5.54,13.89,11,20.89,16.4,1.77,1.55,3.55,3.09,5.36,4.59q8.81,8,17.14,16.46l1.77,1.72c-.8-.52-1.59-1.05-2.4-1.55-5.67-3.42-11.72-6.14-17.66-9.05-3.72-1.65-7.22-3.71-10.77-5.69-4.74-2-9.53-3.87-14.34-5.69a29.41,29.41,0,0,0-6.65-1.81l.12,0-.17,0h0c-3.51-.15-7,.26-10.52.28l-3.51.19a19.19,19.19,0,0,1-4.63-1.89c-2.87-1.43-5.66-3-8.55-4.43-7.15-3.47-14.83-5.66-22.52-7.55-3.92-.94-7.87-2.52-12-1.81-2.76.31-6.29,1.33-7.11,4.32-.93,3.47,2.27,6.19,4,8.86,3,3.64,7.66,5.6,12.12,6.79,4.86,1.11,9.84.63,14.72,0,11.68-.78,23.36-1.59,35.06-2,5.83.92,10.21,3.2,15.22,5a44.78,44.78,0,0,1,7.33,3.12,76.36,76.36,0,0,0,8.21,4.19c6.12,3,12.4,5.65,18.45,8.79q7.17,4,14.13,8.37c.8.82,1.6,1.63,2.39,2.45-4.81-2.34-9.55-4.82-14.4-7.08-7.26-3.47-14.51-7.14-22.36-9.1-10.41-3-22.47-2.53-31.5,4-2,1.65-4.12,3.78-4.38,6.47a6.94,6.94,0,0,0,3.74,5.21c4.14,1.68,8.76,1.75,13.17,1.83,3.23.08,6.46.18,9.69.08,7.73-.17,16-2.15,23.4-1.64,3.68.46,7.32,1.21,11,1.62,2.77.32,5.58.36,8.33.84a30.3,30.3,0,0,1,8,2.67c2.83,3,5.57,5.91,8.19,8.76,5.51,6.41,9.77,13.78,14,21.07q3.38,5.88,6.65,11.78a187.59,187.59,0,0,0-24.49-10.71c-6.57-2.15-13.36-5.07-20.41-4.14a16,16,0,0,0-5.43,2.17,6.43,6.43,0,0,0-2.69,2.87c-.66,2.74,1,5.66,2.85,7.58,5.64,5.27,14.27,5.61,21.59,6.2A97.37,97.37,0,0,0,390,521c4.88-.68,9.39-1.86,14-2.38a24.53,24.53,0,0,1,3.86-.14h.08q3.63,6.56,7.12,13.17,4.29,8.31,8.55,16.62-4-4.07-8.25-7.86c-2.54-2.18-4.86-4.67-7.69-6.48a9.93,9.93,0,0,0-9.77-.72c-2.27,1-3,3.45-2.32,5.72,1.59,4,6,6,9.74,7.37,6.42,2.13,12.25,4,18.41,6.53.77.29,1.53.59,2.29.9l-.35-.22A104.36,104.36,0,0,0,415,547.72c-5.34-2.63-12.26-4.46-15.28-9.11a4.45,4.45,0,0,1-.55-3.94,6.13,6.13,0,0,1,3,.14c3.66,1,6.5,3.81,9.59,5.93,4.26,3.07,8.53,6.13,12.72,9.29,2.81,5.54,5.6,11.09,8.31,16.68,2.92,6.58,5.26,13.39,7.89,20.09-1.58-6.91-3-13.87-5.14-20.65-2.17-6.28-4.66-12.43-7.38-18.49.09-.85.2-1.71.33-2.56.61-3.05,1.34-6.08,2.17-9.08.58-1,1.2-1.94,1.84-2.87,1.94-2.58,4.24-4.88,5.61-7.86,1.39-2.36,2.91-4.89,3-7.7a1.54,1.54,0,0,0-1.76-1.47c-2.46.19-4.4,2.16-5.67,4.14-2.77,4.31-4.12,9.34-5.18,14.31-.23,1.13-.43,2.26-.61,3.4a26.32,26.32,0,0,0-1.52,5.76c-3.28-7-6.85-13.93-10.54-20.75q-2-3.75-4.07-7.48C412.81,513.9,413.88,512.32,415,510.79ZM301.75,278.86c1.14-3.36,4.83-9.92,7.37-14,2.63-4.32,6.32-9.78,10.27-13.59a3,3,0,0,1,.38.68c1.12,2.61-.68,5.57-2.48,8.88-2.68,4.77-6.61,8.63-10.35,12.56a33.45,33.45,0,0,0-6,9.4C301.2,281.45,301.47,280.15,301.75,278.86ZM290,334.2a37,37,0,0,0-3-6.45c-3-4.31-6.29-8.47-9.34-12.78-5.12-7.7-15.57-21-15.7-29.09a8.74,8.74,0,0,1,.38-2,5,5,0,0,1,.72.18c1.47.64,4,3.53,6,5.75a65.52,65.52,0,0,1,8.92,12.44,256.66,256.66,0,0,1,11.84,26C289.81,330.21,289.89,332.21,290,334.2ZM260.56,198.9c1.21-5.14,1.74-9.4,3.63-13.79,1.55-4,5.77-9.26,7.92-11.48,3.08,1.62,1,8.71.27,11.32-1.87,6.14-5.42,12.43-8.48,17.57-2.24,3.2-4.38,6.5-6.37,9.88C258.55,207.9,259.58,203.41,260.56,198.9Zm-9.11,123c-4.14-2.78-8.63-5-12.87-7.64-4.48-2.78-8.91-5.66-13.6-8.1-5.52-2.54-11.25-5.06-15.69-9.33-3-2.95-7-7.92-3.08-11,1.79-2.21,12.42,1.66,17.67,5.58,8.29,5.84,14.52,13,21,20.26,4,4.77,8.08,9.54,11.9,14.47l.6,1.91A29.81,29.81,0,0,0,251.45,321.88Zm5-52.66c1.32-8.21,2.77-16.5,5.45-24.38a218.48,218.48,0,0,1,11-20.45c3.69-5.76,8.45-10.54,13.52-15.14.22-.11.24-.33,1.29-.35a5.13,5.13,0,0,1,2.35,1.15.08.08,0,0,1,0,0s0,0,.11.1l0,0s0,0,0,0v0c1.23,1.77.36,4.47-.26,7-1.26,5.2-4,10-6.51,14.74-1.88,3.46-4.67,8.48-6.1,11.18-3.14,5-7.49,11.74-11.15,17.25-3.26,5.86-6.6,11.7-9.05,18-.74,1.67-1.47,3.33-2.06,5C255.45,278.63,255.93,273.92,256.42,269.22Zm-2.72,3.94c0,1.8-.07,3.59-.08,5.38-.12-1.35-.23-2.7-.35-4.07,0-.27,0-.55-.07-.82A3.88,3.88,0,0,0,253.7,273.16Zm-10.39-35.34c-3-5.63-6.09-11.2-9.39-16.65a69.12,69.12,0,0,1-6.47-12.42,29.13,29.13,0,0,1-1.54-4.91,7.12,7.12,0,0,1-.37-3C230.6,201.42,238,215,241,222a138.72,138.72,0,0,1,7,24.59C246.72,243.52,244.75,240.79,243.31,237.82ZM262.52,361c-4.09-1.72-7-2.38-10.68-4.25a20.57,20.57,0,0,1-4.15-3.7c-1.07-1.17-2.31-2.13-3-4.21,0,0,0-.05,0-.13a8.12,8.12,0,0,1,0-1.48,8.51,8.51,0,0,1,2.16.14c3.24.69,6.19,2.22,9.22,3.55a167.79,167.79,0,0,1,16.37,9.26c1.1,2,2.25,3.92,3.43,5.84C271.17,364.14,266.89,362.78,262.52,361Zm43.42,35.71a.68.68,0,0,0,.86-.08.32.32,0,0,0,.12-.2q-.3-3-.69-6.05c0,1.81-.05,3.63-.09,5.44a2.94,2.94,0,0,1-.49-1.36c-.27-1.83-.64-3.64-.87-5.47a66.11,66.11,0,0,1-.8-20.24c2.42-17.46,1.16-33.76,14.44-46.34.42-.47.79-1,1.19-1.46a10.19,10.19,0,0,1,1.25,5c.6,5.19-.33,10.36-1.16,15.47-.53,3.39-1.28,6.74-2.14,10.06-1.63,6.69-4.66,14.11-6.66,21.66-1.48,6-1.67,12.14-2,18.25-.19,2.54-1,5.05-1.24,7.58l-2.38-2.58A1.57,1.57,0,0,0,305.94,396.69Zm-1.17,13.55c-4.11-1.94-8.3-3.75-12.46-5.61-5.41-2.77-10.87-5.45-16.48-7.8-4.8-1.83-9.61-3.65-14.34-5.65-3.06-1.4-5.91-3.21-9-4.54-7.4-3.2-15.4-7.87-19.8-13.66-2-2.48-2-4.54-1.13-7.66-.31.71.32-.84.48-1.15l.05-.09a1,1,0,0,1,.08-.11,1,1,0,0,1,.21-.06c-.66.07.87-.14,1.07-.2h0l1-.1c19-.13,42.76,22.05,57.23,34.77,4.8,4.4,9.71,8.66,14.69,12.85C305.83,410.89,305.31,410.56,304.77,410.24Zm32.2,18a68,68,0,0,1-5.38-9.66,62.79,62.79,0,0,1-5.74-20.61c-.34-3.29-1-7.69.12-9.89.08-.16.15-.31.23-.44a5.61,5.61,0,0,1,2.85,1.4c1.28,1.2,3,4.83,3.87,7.31,2.22,6.77,2.7,13.94,4,20.92,1.09,4.32,1.26,8.92,2.5,13.6C338.61,430,337.76,429.11,337,428.2Zm-60.58,9.3c-2.78.14-5.53.68-8.32.72a24.37,24.37,0,0,1-11.27-2.31c-3.52-1.68-5.79-3.29-7.63-6.23-1.9-2.42-3.21-4.62-2.69-6h0c.35-.05.74-.09.76-.11a14.6,14.6,0,0,1,5.67.41c9.47,2.58,19.27,4.61,27.59,8,3.33,1.33,6.59,2.85,9.94,4.14.37.16.74.32,1.12.46C286.5,436.86,281.44,437.16,276.39,437.5Zm95.23,33.05c-3.62-.66-7.29-1.05-10.89-1.8-4.38-1-8.82-1.8-13.33-1.35-8,.71-16,2.07-24.08,1.69-4.61,0-11.21-.21-14.39-1.33a6.21,6.21,0,0,1-3.83-4.35c-.09-1.41,1.18-2.77,2.24-3.85,3.11-2.59,9.21-4.42,15.23-4.37a60.55,60.55,0,0,1,13.21,2.05c7,1.68,13.64,4.49,20.36,7.05,6,2.21,11.92,4.59,18,6.72l.34.35A26,26,0,0,0,371.62,470.55Zm.35-32.19A88.09,88.09,0,0,0,375.45,459c.33,1.39.71,2.77,1.12,4.13-1.63-2.45-3.28-4.89-4.73-7.45a195.08,195.08,0,0,1-8.94-21.37c-1.57-4.8-4-9.47-4-13.85,1.21-10.07.93-21.51,5.27-29.38l.07-.1a6.83,6.83,0,0,1,2.6,3.57c2.32,6.71,1.71,15,2.54,22.77C369.85,424.38,371.28,431.33,372,438.36Zm31.36,79.73c-5.26.15-10.05,1.62-15.59,1.24-9.54-.71-26.13-1.05-29.44-10.49a4.59,4.59,0,0,1-.37-2.52s0,0,0-.06a2.56,2.56,0,0,1,.11-.24l.12-.13.14-.13,0,0c2.86-2.39,11-.64,17.29,1.24a307.19,307.19,0,0,1,31.84,10.64l.32.58A20.16,20.16,0,0,0,403.33,518.09ZM437.12,520v.06a16.27,16.27,0,0,1-.49,1.89c-1,2.45-2.28,4.77-3.49,7.12l-.47.62A41.33,41.33,0,0,1,437.12,520ZM411.46,515c-.39-.7-.78-1.4-1.16-2.1.66-7.25,1.37-14.49,1.91-21.74,1-11.51,1.82-24.24,5.39-34.2a16.27,16.27,0,0,1,2.73-4.64c.86.11,2.29.7,3.43,2.89s3,5.68,3.15,7.17c.34,4.43-.48,8.88-1,13.27-.76,5.68-1.59,11.59-3.26,16.2-3.09,6.74-5.73,13.72-9.51,20.13A24.65,24.65,0,0,0,411.46,515Z" transform="translate(-135.71 -170.52)"/><path class="cls-2" d="M712.55,210.19l.1-.1s0,.06-.11.11Z" transform="translate(-135.71 -170.52)"/><path class="cls-2" d="M591,515.5q-2.06,3.74-4.07,7.48c-3.69,6.82-7.26,13.72-10.55,20.75a25.74,25.74,0,0,0-1.51-5.76c-.18-1.14-.38-2.27-.61-3.4-1.07-5-2.41-10-5.18-14.31-1.27-2-3.21-4-5.67-4.14a1.53,1.53,0,0,0-1.76,1.47c.07,2.81,1.58,5.34,3,7.7,1.37,3,3.66,5.28,5.61,7.86.64.93,1.25,1.88,1.83,2.87.84,3,1.56,6,2.18,9.08.13.85.24,1.71.33,2.56-2.72,6.06-5.22,12.21-7.38,18.49-2.11,6.78-3.56,13.74-5.14,20.65,2.63-6.7,5-13.51,7.89-20.09q4.07-8.38,8.31-16.68c4.19-3.16,8.46-6.22,12.72-9.29,3.09-2.12,5.92-4.91,9.58-5.93a6.18,6.18,0,0,1,3-.14,4.45,4.45,0,0,1-.56,3.94c-3,4.65-9.93,6.48-15.27,9.11a103.31,103.31,0,0,0-10.66,5.76l-.36.22c.76-.31,1.53-.61,2.3-.9,6.15-2.52,12-4.4,18.4-6.53,3.79-1.41,8.16-3.37,9.74-7.37.65-2.27,0-4.71-2.31-5.72a9.93,9.93,0,0,0-9.77.72c-2.83,1.81-5.15,4.3-7.69,6.48q-4.26,3.79-8.25,7.86,4.25-8.32,8.55-16.62,3.48-6.63,7.11-13.17h.09a24.53,24.53,0,0,1,3.86.14c4.6.52,9.11,1.7,14,2.38a97.54,97.54,0,0,0,11.47,0c7.31-.59,16-.93,21.59-6.2,1.87-1.92,3.51-4.84,2.84-7.58a6.43,6.43,0,0,0-2.69-2.87,15.91,15.91,0,0,0-5.43-2.17c-7-.93-13.84,2-20.41,4.14A188.78,188.78,0,0,0,595.59,517q3.28-5.91,6.65-11.78c4.22-7.29,8.47-14.66,14-21.07,2.62-2.85,5.36-5.79,8.18-8.76a30.49,30.49,0,0,1,8-2.67c2.75-.48,5.55-.52,8.32-.84,3.69-.41,7.33-1.16,11-1.62,7.39-.51,15.67,1.47,23.41,1.64,3.23.1,6.46,0,9.69-.08,4.41-.08,9-.15,13.17-1.83a7,7,0,0,0,3.74-5.21c-.27-2.69-2.41-4.82-4.39-6.47-9-6.5-21.08-7-31.5-4-7.84,2-15.09,5.63-22.35,9.1-4.85,2.26-9.59,4.74-14.4,7.08.79-.82,1.59-1.63,2.39-2.45q6.94-4.4,14.13-8.37c6-3.14,12.32-5.8,18.45-8.79a75.29,75.29,0,0,0,8.2-4.19,45.15,45.15,0,0,1,7.33-3.12c5-1.78,9.4-4.06,15.23-5,11.69.38,23.38,1.19,35,2,4.89.6,9.86,1.08,14.72,0,4.46-1.19,9.13-3.15,12.12-6.79,1.69-2.67,4.9-5.39,4-8.86-.81-3-4.34-4-7.1-4.32-4.1-.71-8,.87-12,1.81-7.69,1.89-15.37,4.08-22.52,7.55-2.89,1.4-5.68,3-8.56,4.43a19,19,0,0,1-4.62,1.89l-3.52-.19c-3.5,0-7-.43-10.51-.28h0l-.16,0,.12,0a29.12,29.12,0,0,0-6.65,1.81c-4.81,1.82-9.61,3.69-14.34,5.69-3.55,2-7,4-10.77,5.69-5.94,2.91-12,5.63-17.67,9.05-.8.5-1.59,1-2.39,1.55.59-.58,1.17-1.15,1.77-1.72q8.32-8.49,17.13-16.46c1.82-1.5,3.6-3,5.37-4.59,7-5.42,14-10.86,20.89-16.4,2.34-1.05,4.68-2.13,7-3.27,3-1.51,5.89-3.22,8.87-4.76,3.79-1.52,7.63-2.93,11.41-4.5,6.14-2.6,12-5.86,18.15-8.42,5.18-2.07,10.44-4,15.5-6.34,2.25-1.14,4.4-2.46,6.68-3.52,6.32-2.87,12.7-6,17.77-10.84,2.36-2.35,5.29-5,5.24-8.58-.18-7.91-5.49-9.62-12.42-9.25-10.8,1.22-20.49,7.06-29.25,13.17-11.45,8.08-21.67,17.69-32.14,27q-7,6.27-13.87,12.6l2.66-2.75c12.71-13,24.68-26.92,34.46-42.28.82-.39,1.65-.76,2.5-1.09,1.87-.61,3.82-.95,5.7-1.5,6.36-1.79,14.07-4.16,19.23-6.07a13,13,0,0,0,5.36-3.8c1.52-1.68,3.52-3.25,4-5.58a9,9,0,0,0-.14-3c-.09-.51,0-1.1-.37-1.51-1.72-2-4.78-1.28-7.12-1.26-4,.7-7.54,3-11,5A103.75,103.75,0,0,0,730.92,359l.76-1.37c4-7.51,8.32-14.89,11.34-22.86.56-1.47,1.08-2.95,1.58-4.44a38.42,38.42,0,0,1,5.2-5.08c4.22-3.61,9.71-5.15,14.52-7.81,5.2-2.54,10.09-5.67,15.29-8.24,6.36-3.13,13.24-5.79,18.15-11.13,2.14-2.47,5-5.69,3.87-9.19-.87-2.58-3.26-4.44-5.7-5.49-5.29-2-12.07,1.17-16.76,3.68-10,5.72-17.52,14.75-24.41,23.77-2.56,3.53-5.09,7.09-7.49,10.74a183.64,183.64,0,0,0,4-18.53c.92-6,1.57-12.1,2.12-18.18a35.72,35.72,0,0,1,1.79-3.34c2.68-4.58,5.52-9.08,8.62-13.4,2.55-3.26,4.23-6.69,7.44-8.71a10.81,10.81,0,0,1-1,4.34c-2,5.6-6.2,10.06-9.45,15a22.47,22.47,0,0,1-2.65,3.4,27.31,27.31,0,0,0-4.65,5c-.11.19.72-.63,1.06-.91,1.54-1.44,3.46-2.36,5.14-3.62a95.55,95.55,0,0,0,6.74-7.05c3.81-4.22,8-9,8.51-14.9a15.38,15.38,0,0,0-.73-3.44c-.8-1.09-2.5-1.89-3.74-1.08-3.47,1.1-5.6,4.22-7.43,7.19a103.22,103.22,0,0,0-8.63,17.08c-.26.64-.51,1.29-.74,1.94.43-5,.82-10.05,1.25-15.07a98.75,98.75,0,0,0,.29-10.46c.19-.81.37-1.62.52-2.43.5-2.75.84-5.67,2.43-8.05,2.64-3.63,5-7.46,7.39-11.25,5.12-8.67,11.45-16.79,14.6-26.46.41-1.49.79-3,1.08-4.52a4,4,0,0,0-.72-3.5,8.24,8.24,0,0,0-5.72-2.52c-2.45.15-4.33,2.11-6,3.75A58.73,58.73,0,0,0,759,218.59c-3.16,8.58-4.66,17.62-5.47,26.72-.33-1.61-.67-3.22-1-4.82-1.29-5.71-2.76-11.37-4.28-17l-.11-.41q-.17-1.76-.36-3.51a16,16,0,0,1,1.14,2.79c.53,2.15.77,4.36,1.29,6.51-.3-3.18.12-6.49-1.24-9.48-.5-1-1-2-1.55-3-.59-5-1.26-10-2-15-.68-4.39-1.11-8.84-2.32-13.12a32.34,32.34,0,0,0-5-9.86C735.33,175,730,167,725.37,172.26c-2.24,4.55.68,12.53,2.62,17a79.26,79.26,0,0,0,9.92,16.1c2.83,3.83,5.57,7.73,8.31,11.62l1.17,5.22c1.41,10.53,3.29,21,3.67,31.65,0,5.93-.81,11.83-1.37,17.73-.12,0-.24,0-.35,0a2,2,0,0,0-.36.17c0-.3,0-.59,0-.88-.7-8.52-1.88-17.14-4.6-25.26a221.09,221.09,0,0,0-10.74-20.09,69.68,69.68,0,0,0-11.55-13.8,36.12,36.12,0,0,0-4.43-3.87c-2.46-1.6-5.95-2.06-8.25.06-2.38,2.43-.57,6.52.11,9.37,1.14,4.47,3.67,8.77,5.79,12.95a289.3,289.3,0,0,0,17.94,29.66c1.47,2.64,5.18,8.87,7.22,12.82,1.73,3.33,3.29,6.74,5,10.08a39.3,39.3,0,0,1,2.25,9.28,172,172,0,0,1-8.45,37.41c-2.37,7-5.88,13.48-9.32,20a220.44,220.44,0,0,1-32.11,46.48l-.1.11a9.75,9.75,0,0,0,.89-2.44c.83-2.52,1.6-5.08,2.25-7.66.68-1.53,1.36-3.06,2-4.59,2.22-5.81,4.1-11.76,5.8-17.74,2.12-7.72,3.86-15.62,4-23.64l0-.07A15.07,15.07,0,0,1,714.5,335a41.28,41.28,0,0,1,4-6.17c1.47-1.63,3-3.2,4.47-4.85a165.6,165.6,0,0,0,12-14.58c3.86-5.32,12-16.9,10.2-23.52-.57-3.92-4.95-5.79-8.52-5-2.7.83-4.33,3.34-6.17,5.3a56.56,56.56,0,0,0-7.85,10.61,131.88,131.88,0,0,0-9.74,26.33V323c-.7-5.55-2-11-3-16.5q-1.26-7.25-2.51-14.48c-1-4.93-1.22-10.15-3.34-14.77-4.39-8.67-13.32-25.11-21.87-29.57a3,3,0,0,0-1.47-.19.73.73,0,0,0-.54.34c-.38.54-.87,1-1.2,1.59-1.86,3.79.85,7.66,2.6,11a49.63,49.63,0,0,0,7.3,9.41c2.46,2.52,5.19,4.86,7.08,7.87a131,131,0,0,1,7.27,13.83c.13.37.25.74.37,1.11,1.1,6.37,2.13,12.76,3.47,19.09.61,3.4,1.5,6.78,1.79,10.23.2,5-.22,10-.17,15,0,9.28-1.77,18.25-3.48,26.73-.82,3.87-1.66,7.74-2.56,11.59a39.77,39.77,0,0,0,0-4.76c-.89-15.33-.7-32.48-11.4-44.7-1-1.12-2-2.18-3-3.28-1.88-2.55-4.56-5.25-8-4.76-2.64.7-2.51,5-2.77,7.21-.44,4.64.37,9.26,1.16,13.82a119.41,119.41,0,0,0,7.14,25.63,87.61,87.61,0,0,1,5.9,23c.3,1.8.49,3.64,1,5.41a60.37,60.37,0,0,1,2,6.66c-8.79,9.49-17.72,18.95-27.64,28.31a55.43,55.43,0,0,0,7.61-11.12A51.1,51.1,0,0,0,680,401.15c.55-3.46,1.45-7,1-10.51a12.55,12.55,0,0,0-2.62-5.15,3.71,3.71,0,0,0-2.74-1c-.64.24-1.29.41-1.94.59-3.88.64-5.42,4.36-6.66,7.64-2.14,5.77-2.23,12-2.75,18.06-.21,3.79-.61,7.57-.8,11.36,0,2.42,0,4.83-.2,7.24,0,.22-.09,1-.16,1.65l-.51.56.49-.37v.09l-3.16,2.86c-8.14,6.8-15.65,14.29-23.1,21.83-4.11,3.94-8.17,8.09-12.06,12.16a21.45,21.45,0,0,1,.59-2.52c.19-.55.37-1.09.55-1.64,2.23-2.52,4.5-5,6.49-7.72a139.6,139.6,0,0,0,11.92-22.51c1.65-4,3.84-8,3.78-12.39-.44-4.29-.85-8.57-1.14-12.87-.81-6.25-2.18-20.1-10-21-4.8.6-6,6.32-6.62,10.33-1,5.35-.69,10.83-1.27,16.24-.41,7.13-1.64,14.18-1.85,21.33-.32,6.55.13,13.15-1,19.63-.53,3.27-.74,6.55-1.38,9.65a25.86,25.86,0,0,0-.36,3.84c-2.88,3-5.68,6-8.32,8.8-6.23,6.22-11.11,13.57-15.51,21.16q-3.84,6.6-7.55,13.29c.2-7,.25-13.94.29-20.91,0-9.74-.51-19.58-2.92-29-1.12-4-2.71-8.31-6.11-10.94a6.32,6.32,0,0,0-7-.6,10.92,10.92,0,0,0-3.12,4c-1.18,2.18-2.45,4.42-2.68,6.94a73.18,73.18,0,0,0,1,13c.82,5.68,1.84,11.4,4,16.74,3.47,6.7,6.8,13.52,11.12,19.73C588.84,512.32,589.91,513.9,591,515.5ZM701.78,282.75a33.45,33.45,0,0,0-6-9.4c-3.74-3.93-7.68-7.79-10.36-12.56-1.8-3.31-3.59-6.27-2.47-8.88a3.44,3.44,0,0,1,.37-.68c4,3.81,7.64,9.27,10.28,13.59,2.54,4.12,6.23,10.68,7.37,14C701.25,280.15,701.52,281.45,701.78,282.75ZM713,328.22a254.47,254.47,0,0,1,11.84-26,64.65,64.65,0,0,1,8.92-12.44c1.93-2.22,4.51-5.11,6-5.75a5.09,5.09,0,0,1,.73-.18,8.74,8.74,0,0,1,.38,2c-.13,8.13-10.59,21.39-15.71,29.09-3.05,4.31-6.29,8.47-9.33,12.78a37,37,0,0,0-3,6.45C712.83,332.21,712.91,330.21,713,328.22ZM745.19,212.4c-2-3.38-4.14-6.68-6.38-9.88-3-5.14-6.6-11.43-8.48-17.57-.7-2.61-2.8-9.7.28-11.32,2.14,2.22,6.37,7.46,7.92,11.48,1.88,4.39,2.42,8.65,3.63,13.79C743.14,203.41,744.17,207.9,745.19,212.4Zm.16,115.65c.21-.63.41-1.27.6-1.91,3.83-4.93,7.88-9.7,11.9-14.47,6.47-7.26,12.7-14.42,21-20.26,5.26-3.92,15.89-7.79,17.68-5.58,3.94,3.06-.07,8-3.08,11-4.44,4.27-10.17,6.79-15.7,9.33-4.69,2.44-9.11,5.32-13.6,8.1-4.23,2.64-8.72,4.86-12.86,7.64A29.86,29.86,0,0,0,745.35,328.05Zm2.3-44.7c-.58-1.71-1.31-3.37-2-5-2.45-6.26-5.8-12.1-9.05-18-3.67-5.51-8-12.22-11.15-17.25-1.43-2.7-4.23-7.72-6.1-11.18-2.48-4.75-5.26-9.54-6.52-14.74-.61-2.49-1.49-5.19-.26-7l0,0,0,0,0,0c.07-.11.11-.13.1-.1l0,0a5.11,5.11,0,0,1,2.36-1.15c1.05,0,1.07.24,1.29.35,5.06,4.6,9.83,9.38,13.52,15.14a218.48,218.48,0,0,1,11,20.45c2.68,7.88,4.12,16.17,5.45,24.38C746.79,273.92,747.26,278.63,747.65,283.35Zm1.86-9.7c0,.27,0,.55-.07.82-.11,1.37-.23,2.72-.34,4.07,0-1.79,0-3.58-.08-5.38A3.78,3.78,0,0,0,749.51,273.65Zm5.27-27.06a139.57,139.57,0,0,1,7-24.59c3-7,10.38-20.58,15.44-21.19a7.28,7.28,0,0,1-.37,3,29.16,29.16,0,0,1-1.55,4.91,69.07,69.07,0,0,1-6.46,12.42c-3.31,5.45-6.39,11-9.39,16.65C758,240.79,756,243.52,754.78,246.59ZM726.84,366q1.77-2.88,3.43-5.84a167.63,167.63,0,0,1,16.36-9.26c3-1.33,6-2.86,9.22-3.55a8.59,8.59,0,0,1,2.17-.14,8.12,8.12,0,0,1,0,1.48.48.48,0,0,0,0,.13c-.69,2.08-1.93,3-3,4.21a20.38,20.38,0,0,1-4.16,3.7c-3.65,1.87-6.58,2.53-10.67,4.25C735.83,362.78,731.55,364.14,726.84,366ZM697.4,396.34,695,398.92c-.29-2.53-1-5-1.24-7.58-.3-6.11-.49-12.28-2-18.25-2-7.55-5-15-6.66-21.66-.86-3.32-1.61-6.67-2.15-10.06-.83-5.11-1.76-10.28-1.16-15.47a10.18,10.18,0,0,1,1.26-5c.39.49.77,1,1.18,1.46,13.28,12.58,12,28.88,14.44,46.34a66.1,66.1,0,0,1-.79,20.24c-.24,1.83-.6,3.64-.87,5.47a2.94,2.94,0,0,1-.49,1.36c-.05-1.81-.08-3.63-.1-5.44q-.37,3-.69,6.05a.34.34,0,0,0,.13.2.67.67,0,0,0,.85.08A1.61,1.61,0,0,0,697.4,396.34Zm-1,14.89c5-4.19,9.9-8.45,14.69-12.85,14.47-12.72,38.27-34.9,57.23-34.77l1,.1h0c.21.06,1.74.27,1.08.2l.21.06.08.11a.44.44,0,0,0,0,.09c.15.31.78,1.86.48,1.15.84,3.12.82,5.18-1.13,7.66-4.41,5.79-12.41,10.46-19.8,13.66-3.1,1.33-6,3.14-9,4.54-4.73,2-9.53,3.82-14.33,5.65-5.61,2.35-11.07,5-16.49,7.8-4.15,1.86-8.34,3.67-12.46,5.61C697.41,410.56,696.89,410.89,696.36,411.23Zm-33.08,19.6c1.23-4.68,1.41-9.28,2.49-13.6,1.33-7,1.81-14.15,4-20.92.89-2.48,2.6-6.11,3.87-7.31a5.6,5.6,0,0,1,2.86-1.4l.23.44c1.1,2.2.46,6.6.11,9.89a62.3,62.3,0,0,1-5.74,20.61,67,67,0,0,1-5.38,9.66C665,429.11,664.1,430,663.28,430.83Zm47.88,5.74c.38-.14.75-.3,1.12-.46,3.35-1.29,6.6-2.81,9.93-4.14,8.33-3.43,18.13-5.46,27.6-8a14.55,14.55,0,0,1,5.66-.41s.42.06.77.11h0c.51,1.42-.79,3.62-2.69,6-1.84,2.94-4.12,4.55-7.63,6.23a24.41,24.41,0,0,1-11.28,2.31c-2.78,0-5.53-.58-8.31-.72C721.27,437.16,716.22,436.86,711.16,436.57Zm-82.89,34.79.34-.35c6-2.13,12-4.51,18-6.72,6.71-2.56,13.36-5.37,20.36-7.05a60.56,60.56,0,0,1,13.2-2.05c6-.05,12.13,1.78,15.23,4.37,1.06,1.08,2.33,2.44,2.24,3.85a6.17,6.17,0,0,1-3.82,4.35c-3.19,1.12-9.78,1.34-14.4,1.33-8.07.38-16.06-1-24.07-1.69-4.51-.45-9,.38-13.33,1.35-3.61.75-7.27,1.14-10.89,1.8A26,26,0,0,0,628.27,471.36Zm5.1-54c.83-7.81.21-16.06,2.53-22.77a6.9,6.9,0,0,1,2.61-3.57.53.53,0,0,1,.06.1c4.35,7.87,4.07,19.31,5.28,29.38-.07,4.38-2.46,9-4,13.85a193.07,193.07,0,0,1-8.93,21.37c-1.45,2.56-3.11,5-4.73,7.45.41-1.36.78-2.74,1.11-4.13a88.1,88.1,0,0,0,3.49-20.65C631.44,431.33,632.87,424.38,633.37,417.33ZM594.92,518.2l.33-.58A307.19,307.19,0,0,1,627.09,507c6.3-1.88,14.43-3.63,17.29-1.24l0,0,.14.13s0,.05.11.13a1.28,1.28,0,0,1,.11.24.14.14,0,0,1,0,.06,4.59,4.59,0,0,1-.37,2.52c-3.32,9.44-19.91,9.78-29.44,10.49-5.55.38-10.34-1.09-15.59-1.24A20.25,20.25,0,0,0,594.92,518.2Zm-24.87,11.53-.47-.62c-1.2-2.35-2.51-4.67-3.48-7.12a14.31,14.31,0,0,1-.49-1.89V520A40.92,40.92,0,0,1,570.05,529.73Zm19.53-17.8c-3.77-6.41-6.41-13.39-9.51-20.13-1.66-4.61-2.49-10.52-3.25-16.2-.53-4.39-1.36-8.84-1-13.27.12-1.49,1.9-5,3.15-7.17s2.57-2.78,3.43-2.89a16.27,16.27,0,0,1,2.72,4.64c3.58,10,4.41,22.69,5.4,34.2.53,7.25,1.24,14.49,1.91,21.74l-1.16,2.1A23.45,23.45,0,0,0,589.58,511.93Z" transform="translate(-135.71 -170.52)"/><text class="cls-3" transform="translate(268.26 768.6) scale(0.95 1)">CRP 05/72603</text><text class="cls-4" transform="translate(0.65 685.75) scale(0.95 1.5)">Carolina Nogueira</text><path class="cls-2" d="M491.05,638a3.18,3.18,0,0,1-2.07-2.53,1.84,1.84,0,0,1,2.39-2c2,.67,3.28,3.4,4.16,5.12a23.52,23.52,0,0,1,2.12,6.14,12.89,12.89,0,0,1,.37,3.33c-.13,1.79-2.41,2.49-2.82.43-.13-.68-1.31-.54-1.22.17a10.12,10.12,0,0,0,7.85,8.69c.79.16,1.12-1,.34-1.21a8.85,8.85,0,0,1-6.94-7.48l-1.23.16c.63,3.19,4.87,2.64,5.24-.4a15.93,15.93,0,0,0-.75-5.6,25.77,25.77,0,0,0-2.06-5.22c-1.17-2.2-3.82-6.87-7-5.18a3.33,3.33,0,0,0-1.65,3.32,4.4,4.4,0,0,0,2.66,3.3c.73.34,1.36-.74.63-1.08Z" transform="translate(-135.71 -170.52)"/><path class="cls-2" d="M493.23,694.39c-2.52,5.32-6.9,10.41-12.38,12.83-3.16,1.39-6.3.64-8.06-2.42s-1.23-6.68-.82-10c.09-.73-1-.82-1.22-.17-1.2,3.88-2.41,8-4.64,11.45a5.67,5.67,0,0,1-1.88,2c-1.43.75-2.89-.5-3.67-1.64-3-4.36-3.32-10.54-3.16-15.63.08-2.5.08-5.17,1.46-7.35,1.63-2.59,4.22-2.92,7.06-2.78a31.19,31.19,0,0,0,14.8-3c4.38-2,8.6-4.25,12-7.71,2.18-2.25,4-5.43,6.83-7a5.73,5.73,0,0,1,2.1-.66c.16,0,1.2,0,.8,0h.51c2,.07,3.56,1.95,4.27,3.91a20.61,20.61,0,0,1,.9,7.73,59,59,0,0,1-2.17,13.65c-2.7,9.59-10.74,17.08-18.91,22.26a84,84,0,0,1-14.5,7.19c-2.3.9-4.71,1.58-7,2.59-1.74.78-3.32,2.09-3.55,4.09-.43,3.85,4.36,4.37,6.07,1.49a3.91,3.91,0,0,0-.61-4.47,6.55,6.55,0,0,0-5.3-2.17c-2.63.09-5.15,1.22-7.59,2.1-2,.72-4.6,1.3-5.84,3.19a3.14,3.14,0,0,0,.68,4.51,3.94,3.94,0,0,0,4.68-.65c1.63-1.5,2.36-4,2.72-6.06a24.24,24.24,0,0,0,0-7.46c-.77-5.48-2.9-10.65-3.71-16.11a30.52,30.52,0,0,1,9.75-26.65c6-5.58,14.56-9.08,22.84-8.3a6.75,6.75,0,0,1,2.48.52c.74.42.28,1.21-.1,1.77a10.62,10.62,0,0,1-4.17,3.37,38.29,38.29,0,0,1-16.59,3.65,22.53,22.53,0,0,1-13.47-4.67A17.55,17.55,0,0,1,447.39,655c-.34-5.28.94-10.52,2.53-15.51,1.65-5.16,3.67-10.33,4-15.8a18.49,18.49,0,0,0-4-12.25c-2.32-3-5.73-6.74-9.86-6.8a3.47,3.47,0,0,0-3.63,2.19c-.48,1.64.35,3.43,1.28,4.74,2.65,3.72,7.16,4.38,11.36,4.89a45.13,45.13,0,0,1,33.72,22.79c2.52,4.47,4.6,9.3,8.12,13.11,2.88,3.1,6.65,5.43,10.95,5.63.81,0,.81-1.21,0-1.25-11.08-.51-14.78-13.51-19.84-21.18a46.61,46.61,0,0,0-20.23-16.88,45.73,45.73,0,0,0-12.53-3.45c-4.34-.54-10.22-1.4-11.57-6.46-.76-2.85,2.15-3.22,4.24-2.56s4,2.59,5.53,4.23c3.18,3.44,5.39,7.84,5.27,12.61-.14,5.56-2.3,10.88-4,16.11-1.54,4.83-2.77,9.9-2.61,15a19.42,19.42,0,0,0,4.58,12.41A21.76,21.76,0,0,0,461.55,673a30.92,30.92,0,0,0,15-.3c4-1,8.55-2.27,11.55-5.31.88-.88,2.08-2.29,1.68-3.65s-2-1.48-3-1.64a28.11,28.11,0,0,0-11,.89,33,33,0,0,0-19.77,15,31.79,31.79,0,0,0-4.26,12.9c-.53,5.09.49,10,1.83,14.85,1.46,5.34,3.15,11,1.9,16.57-.47,2.12-1.78,6-4.68,5.38-1.51-.33-1.76-1.91-.94-3.08s2.61-1.72,4-2.22c2.6-.93,5.35-2.26,8.14-2.44,2.17-.13,5.47,1.06,5.35,3.76-.11,2.32-4.15,3.41-4.07.46s3.77-3.65,5.88-4.41c9.53-3.41,18.75-7.84,26.38-14.6a42.56,42.56,0,0,0,9-10.82c2.36-4.21,3.39-8.85,4.14-13.58.82-5.09,1.75-11.71-1-16.44a5.87,5.87,0,0,0-4.79-3.15c-4.74-.09-7.21,3.82-10.06,7a35.12,35.12,0,0,1-11.48,8,38.84,38.84,0,0,1-7.72,2.83,28.69,28.69,0,0,1-8.11.55c-2.19-.09-4.35.1-6.09,1.55a8.76,8.76,0,0,0-2.85,5,34.65,34.65,0,0,0-.4,7.48,34.15,34.15,0,0,0,.94,7.6c.74,3,2.55,9,6.67,8.45,1.76-.24,2.95-2,3.78-3.39A52,52,0,0,0,472,695l-1.23-.16c-.45,3.63-.87,7.63,1.18,10.89a6.88,6.88,0,0,0,7.5,3.29c3.33-.74,6.4-3.16,8.81-5.48a29.1,29.1,0,0,0,6.1-8.52c.34-.72-.74-1.36-1.08-.63Z" transform="translate(-135.71 -170.52)"/><path class="cls-2" d="M513.5,639.09c2.42-1.14,4-4.84,1.15-6.55-3.21-1.91-6,2.9-7.15,5.11a24.66,24.66,0,0,0-2.06,5.22,16.39,16.39,0,0,0-.77,5.42,2.81,2.81,0,0,0,2.44,2.78,2.61,2.61,0,0,0,2.81-2.2l-1.23-.16a8.84,8.84,0,0,1-6.94,7.48c-.78.17-.45,1.37.34,1.21a10.12,10.12,0,0,0,7.85-8.69c.09-.7-1.09-.86-1.22-.17-.41,2.06-2.69,1.36-2.82-.43a12.89,12.89,0,0,1,.37-3.33,23.9,23.9,0,0,1,2.12-6.14c.88-1.72,2.19-4.45,4.16-5.12a1.84,1.84,0,0,1,2.39,2,3.17,3.17,0,0,1-2.07,2.53c-.73.34-.1,1.42.63,1.08Z" transform="translate(-135.71 -170.52)"/><path class="cls-2" d="M509.61,695a29.1,29.1,0,0,0,6.1,8.52c2.41,2.32,5.49,4.74,8.81,5.48a6.88,6.88,0,0,0,7.51-3.29c2-3.26,1.62-7.26,1.17-10.89L532,695c1.19,3.86,2.42,7.92,4.54,11.39.83,1.37,2,3.06,3.79,3.22,4.19.36,5.94-5.85,6.64-8.89a35.61,35.61,0,0,0,.85-7.63,31.52,31.52,0,0,0-.48-7.39,8.61,8.61,0,0,0-3-4.9c-1.9-1.43-4.22-1.43-6.49-1.3-5.54.3-10.61-1.21-15.57-3.61a34.79,34.79,0,0,1-11.39-8.17c-1.92-2.16-3.71-4.9-6.47-6.06a6.73,6.73,0,0,0-5.62.08c-3,1.64-3.83,5.51-4.09,8.62a44.3,44.3,0,0,0,.73,10.9c.78,4.68,1.86,9.21,4.25,13.35,4.83,8.36,13,14.68,21.42,19.13a105.65,105.65,0,0,0,14.18,6.09c2,.72,5.8,1.71,5.46,4.59s-4.42,1.1-4-1.29c.46-2.82,3.91-3.54,6.25-3.15a44.86,44.86,0,0,1,7.64,2.49c1.24.45,2.77.92,3.55,2.06,1,1.46.26,3.19-1.56,3.13-2.71-.08-3.73-3.74-4.15-5.86-1.11-5.59.66-11.23,2.11-16.59,1.33-4.87,2.26-9.73,1.66-14.79A32.69,32.69,0,0,0,538.84,668a30.73,30.73,0,0,0-11-5.14,27.12,27.12,0,0,0-10.9-.77c-1.09.18-2.59.5-2.81,1.79s1,2.79,1.94,3.68c3.15,3,7.87,4.3,12,5.25,8.92,2,19.38.75,25.55-6.69,6.45-7.78,4.3-18.64,1.47-27.43-1.69-5.24-3.89-10.66-3.83-16.25,0-4.75,2.42-9.09,5.67-12.45,1.53-1.58,3.29-3.33,5.47-3.91a4.21,4.21,0,0,1,3.27.17,2.28,2.28,0,0,1,.54,2.78c-1.71,5-7.38,5.63-11.84,6.22A46.62,46.62,0,0,0,530.48,626a45.09,45.09,0,0,0-8.73,9.91c-2.87,4.42-4.81,9.4-8,13.65-2.78,3.76-6.84,7-11.68,7.21-.8,0-.81,1.29,0,1.25,10.46-.48,14.86-11.37,19.29-19.13a45.43,45.43,0,0,1,20.37-18.63,43.83,43.83,0,0,1,13.5-3.82c4.2-.47,8.68-1.34,11.18-5.12.87-1.31,1.63-3.14,1-4.7a3.66,3.66,0,0,0-3.87-1.94c-4.1.28-7.47,4-9.76,7.09a18.37,18.37,0,0,0-3.77,12.4c.42,5.46,2.46,10.61,4.09,15.79,3,9.54,4.59,21.48-4.51,28.27a23,23,0,0,1-13.47,4.32,37.49,37.49,0,0,1-16.33-3.75,10,10,0,0,1-4.12-3.51c-.44-.72-.58-1.3.29-1.64a9,9,0,0,1,2.52-.44,29.5,29.5,0,0,1,11.91,1.78,31.65,31.65,0,0,1,18.92,18.86,30,30,0,0,1,1.4,14.78c-.87,5.36-2.94,10.44-3.67,15.82a23.59,23.59,0,0,0,.1,7.73c.42,2.09,1.19,4.48,2.92,5.87a3.85,3.85,0,0,0,4.65.24,3.24,3.24,0,0,0,.21-4.63c-1.41-1.77-4-2.33-6.05-3.05-2.44-.88-5-2-7.61-2-3.17.06-7.76,3.38-5.3,6.88,1.92,2.74,6.48,1.88,5.89-1.88-.32-2-1.93-3.24-3.68-4-2.35-1-4.84-1.75-7.22-2.69-9.67-3.83-19-9.12-25.95-17a31.67,31.67,0,0,1-7.16-12.69,59.88,59.88,0,0,1-2.06-13.56c-.1-3.38,0-8.61,3.26-10.7a4.25,4.25,0,0,1,2-.65,6.62,6.62,0,0,1,3.55.83c2.8,1.64,4.63,4.81,6.87,7.08,3.42,3.43,7.74,5.72,12.14,7.65a35.76,35.76,0,0,0,7.26,2.41,31,31,0,0,0,7.58.4c2.84-.12,5.33.48,6.81,3.11,1.26,2.25,1.22,5,1.28,7.49a37.64,37.64,0,0,1-.61,8.21c-.5,2.5-1.25,5.42-2.9,7.42-2.08,2.54-4,1.15-5.32-1-2.15-3.42-3.35-7.46-4.52-11.28-.2-.64-1.32-.56-1.23.17.41,3.28.89,6.94-.82,10s-4.9,3.81-8.06,2.42c-5.48-2.42-9.86-7.51-12.38-12.83-.34-.73-1.42-.09-1.08.63Z" transform="translate(-135.71 -170.52)"/></svg>